# xmcd
#
# Track frame offsets:
#	150
#	17569
#	33558
#	48545
#	62403
#	79758
#	93408
#	111964
#	135722
#	157595
#	175514
#	190492
#	217222
#	233434
#	253234
#	270395
#	285575
#	299588
#	321272
#	343207
#
# Disc length: 4805 seconds
#
# Revision: 2
# Processed by: cddbd v1.5.2PL0 Copyright (c) Steve Scherf et al.
# Submitted via: EZCDAudioConverter 2.1.7.1
#
DISCID=2412c314
DTITLE=V/A - Island Records Presents: Dub 1/2
DYEAR=2014
DGENRE=
TTITLE0=Burning Spear - Black Wa-Da-Da
TTITLE1=Righteous Foundation - Zion
TTITLE2=Junior Murvin - Grumblin' Dub
TTITLE3=Toots and The Maytals - Premature Dub
TTITLE4=Third World - Satta Massa Gana Dub
TTITLE5=Steel Pulse - Ku Klux Klan Dub
TTITLE6=Jacob Miller - The Black Spy
TTITLE7=Wailing Souls - Dub Funny Something
TTITLE8=Tyrone Taylor - South Africa Dub
TTITLE9=Rico Rodriquez - Take Five Version
TTITLE10=Vivian Weathers - Cheat Heart Dub
TTITLE11=Aswad - Dub Charge
TTITLE12=Judy Mowatt - The People's Choice
TTITLE13=Junior Delgado - Bazooka Blast
TTITLE14=Ijahman - Whip That Tarantula
TTITLE15=The Paragons - Indiana Jones
TTITLE16=Black Uhuru - The Monkey Is A Spy
TTITLE17=Gregory Isaacs - Night Nurse Version
TTITLE18=Ini Kamoze - World A Music Dub
TTITLE19=Augustus Pablo - Eastern Promise (Dub)
EXTD=
EXTT0=
EXTT1=
EXTT2=
EXTT3=
EXTT4=
EXTT5=
EXTT6=
EXTT7=
EXTT8=
EXTT9=
EXTT10=
EXTT11=
EXTT12=
EXTT13=
EXTT14=
EXTT15=
EXTT16=
EXTT17=
EXTT18=
EXTT19=
PLAYORDER=
